<svg width="53" height="56" viewBox="0 0 53 56" fill="none" xmlns="http://www.w3.org/2000/svg">
<path d="M11.3535 30.9805C11.3535 30.5508 11.5397 30.0924 11.9121 29.6055L31.4414 5.2207C31.7995 4.76237 32.1862 4.48307 32.6016 4.38281C33.0312 4.28255 33.4108 4.32552 33.7402 4.51172C34.084 4.68359 34.3203 4.97005 34.4492 5.37109C34.5924 5.77214 34.5566 6.24479 34.3418 6.78906L27.9395 24.1914H40.0781C40.5365 24.1914 40.9089 24.3346 41.1953 24.6211C41.4818 24.8932 41.625 25.237 41.625 25.6523C41.625 26.0964 41.4388 26.5547 41.0664 27.0273L21.5371 51.4336C21.179 51.8776 20.7852 52.1497 20.3555 52.25C19.9401 52.3646 19.5605 52.3288 19.2168 52.1426C18.8874 51.9707 18.651 51.6842 18.5078 51.2832C18.3789 50.8822 18.4219 50.4023 18.6367 49.8438L25.0391 32.4414H12.9004C12.4421 32.4414 12.0697 32.3053 11.7832 32.0332C11.4967 31.7467 11.3535 31.3958 11.3535 30.9805Z" fill="#C99B2B"/>
</svg>
