<svg width="257" height="57" viewBox="0 0 257 57" fill="none" xmlns="http://www.w3.org/2000/svg">
<g clip-path="url(#clip0_329_1915)">
<path d="M243.809 24.947V1.66962C242.065 0.877511 239.874 2.24677 238.274 0.898124C238.306 0.727335 238.335 0.556546 238.368 0.382812H251.664V53.8044H256.455C256.546 53.9399 256.637 54.0783 256.728 54.2137C256.431 54.4728 256.14 54.9499 255.84 54.9528C252.026 55.0029 248.208 54.9852 244.226 54.9852V48.8662C244.015 48.881 243.929 48.878 243.926 48.8898C242.388 56.3515 232.709 57.4204 226.554 54.0576C221.948 51.5429 219.454 47.4322 218.354 42.4941C216.937 36.1336 218.128 30.2061 222.166 25C224.769 21.6431 228.201 19.7674 232.498 19.3934C235.756 19.1107 238.715 19.6937 241.203 21.858C242.194 22.7208 242.926 23.881 243.809 24.9411V24.947ZM244.182 38.2715C243.853 34.2874 243.8 30.901 243.241 27.5971C242.518 23.3127 238.93 20.3268 235.136 20.6272C231.383 20.9246 229.257 23.404 227.989 26.6902C226.036 31.7579 226.301 37.0671 226.701 42.3203C226.874 44.6054 227.516 46.9257 228.351 49.0694C229.527 52.0906 231.689 54.2019 235.15 54.4728C239.356 54.8026 242.206 51.8786 242.935 48.3892C243.667 44.888 243.835 41.2661 244.185 38.2715H244.182Z" fill="#6C6C6A"/>
<path d="M45.7971 36.944V55.3185C45.0678 54.4646 44.4266 53.8433 43.9502 53.1159C43.3237 52.156 42.7503 52.047 41.6856 52.583C36.7918 55.0535 31.6274 56.3344 26.0807 56.2608C14.5549 56.1047 3.89962 47.8568 1.29978 36.5583C-0.850093 27.212 0.291016 18.3339 6.33772 10.5483C10.5316 5.14487 16.0871 1.88222 22.8191 0.56891C28.8687 -0.611889 34.5213 0.601301 39.9092 3.28681C41.2474 3.9523 42.0327 3.82568 42.8561 2.69199C43.2855 2.10012 43.8355 1.59364 44.3325 1.04594C44.4619 1.11956 44.5913 1.19612 44.7207 1.26973V19.0171C43.6679 15.9576 42.8973 13.2721 41.8356 10.7073C39.2299 4.41755 32.9097 0.560076 26.3601 1.18728C21.528 1.64959 17.9135 4.25854 15.1666 8.14251C11.8344 12.8539 10.4286 18.1837 10.0287 23.8845C9.66105 29.1407 9.85515 34.3557 10.9727 39.4941C12.0344 44.3822 13.9049 48.9139 18.0076 52.1148C26.2189 58.5193 39.6857 54.9092 43.0149 44.603C43.712 42.4446 44.1972 40.2155 44.8148 38.0276C44.9442 37.5653 45.2354 37.1472 45.4501 36.7084C45.5648 36.785 45.6795 36.8645 45.7971 36.9411V36.944Z" fill="#6C6C6A"/>
<path d="M53.0631 21.4444C51.5279 20.8967 49.8897 21.7389 48.6016 20.8938C48.628 20.6847 48.6545 20.4786 48.678 20.2695H60.942C60.942 20.6877 60.942 21.2148 60.942 21.7389C60.942 30.8643 61.0008 39.9898 60.9155 49.1152C60.8773 53.1964 63.8565 55.1988 67.7945 54.339C71.7325 53.4791 73.4413 50.3961 74.3971 46.8979C74.9706 44.8042 75.2794 42.581 75.3264 40.4108C75.45 34.5245 75.3353 28.6352 75.4 22.7489C75.4147 21.4857 74.9941 21.1117 73.8089 21.2148C72.8472 21.2972 71.8708 21.2324 70.7297 20.8997C70.9796 20.7053 71.2267 20.349 71.4767 20.3461C75.2412 20.3108 79.0086 20.3225 82.9378 20.3225V53.8178H87.9816V54.9515H75.4176V48.2819C74.2824 49.9161 73.3119 51.942 71.7914 53.382C67.4269 57.5221 57.1746 56.8095 54.163 50.4108C53.4454 48.8826 53.1484 47.0333 53.1219 45.3254C53.0101 37.9197 53.0689 30.508 53.0631 23.1023C53.0631 22.5281 53.0631 21.9539 53.0631 21.4474V21.4444Z" fill="#6C6C6A"/>
<path d="M155.519 51.2998C155.343 51.821 155.272 52.4158 154.97 52.8487C153.258 55.2986 149.105 56.4912 145.541 55.6108C142.853 54.9482 141.532 53.2168 141.103 49.5183C140.032 52.8016 137.832 54.5507 134.871 55.4076C130.968 56.5383 127.292 55.8993 124.054 53.5348C120.157 50.6873 119.76 42.4482 125.689 39.804C128.856 38.3905 132.221 37.4159 135.497 36.2468C135.953 36.0849 136.426 35.9641 136.876 35.7816C140.306 34.3829 140.95 33.4259 140.95 29.7539C140.95 28.3788 140.879 27.0007 140.964 25.6344C141.212 21.6267 138.9 20.281 135.5 20.3252C134.682 20.337 133.835 20.4754 133.059 20.7257C130.88 21.4265 130.156 22.9194 130.703 25.3576C131.503 28.9206 129.395 30.973 125.874 30.0513C123.118 29.3299 122.371 26.6061 124.28 24.2033C126.018 22.0184 128.351 20.7728 130.983 20.0307C134.621 19.006 138.303 19.0767 141.97 19.7687C146.308 20.5873 148.535 23.3641 148.549 27.9106C148.576 35.2692 148.552 42.6308 148.555 49.9894C148.555 51.45 148.346 53.0313 150.24 53.6025C152.058 54.1502 153.387 53.5289 154.617 51.6031C154.72 51.4441 154.843 51.2998 154.955 51.1467C155.143 51.1967 155.328 51.2439 155.517 51.2939L155.519 51.2998ZM140.753 35.0955C138.55 36.1143 136.232 37.1744 133.924 38.2551C128.592 40.7551 127.918 47.0006 129.753 51.026C130.45 52.5542 131.536 53.7232 133.341 53.8881C136.626 54.1856 139.159 52.5218 140.05 49.3181C140.45 47.8811 140.679 46.3587 140.723 44.8687C140.82 41.5648 140.753 38.2551 140.753 35.0955Z" fill="#6C6C6A"/>
<path d="M212.856 34.723H189.763C189.763 36.0187 189.651 37.2378 189.787 38.4274C190.113 41.3279 190.237 44.3049 191.007 47.0964C193.207 55.0469 201.551 56.2189 207.159 52.2436C209.306 50.7212 210.544 48.5304 211.565 46.1718C211.721 45.8125 212.07 45.5357 212.465 45.3296C210.512 53.3714 204.021 56.7872 196.501 55.7683C193.504 55.362 190.722 54.4845 188.331 52.5764C184.69 49.6729 182.675 45.789 181.916 41.2837C181.028 36.0187 181.799 31.001 184.819 26.481C189.81 19.0075 199.836 16.9816 207.018 22.0493C210.535 24.5316 212.238 28.1212 212.703 32.3408C212.782 33.0681 212.803 33.8043 212.865 34.723H212.856ZM189.519 33.7395H205.347C204.93 30.6977 204.692 27.7825 204.08 24.9439C203.636 22.8915 202.409 21.2189 200.183 20.5829C196.445 19.514 192.713 21.5134 191.292 25.7242C190.448 28.2242 190.128 30.898 189.519 33.7366V33.7395Z" fill="#6C6C6A"/>
<path d="M92.2474 53.8832H96.4972V21.4303C95.1208 20.7737 93.365 21.9133 92.0915 20.8061C92.1121 20.6265 92.1327 20.4468 92.1533 20.2643H104.126V27.673C104.226 27.6906 104.323 27.7113 104.423 27.7289C104.647 27.0193 104.861 26.3096 105.094 25.6029C106.397 21.66 109.12 19.5517 113.249 19.1777C117.261 18.8126 120.022 21.9221 118.619 25.279C117.911 26.978 115.984 27.9704 114.046 27.6318C112.34 27.3373 111.42 26.2036 111.27 24.1983C111.24 23.8067 111.346 23.3915 111.246 23.0263C111.079 22.4109 110.885 21.398 110.537 21.3243C109.955 21.2007 109.102 21.5187 108.617 21.9427C106.447 23.8273 105.561 26.448 105.108 29.1541C104.708 31.5481 104.538 34.0039 104.503 36.4362C104.417 42.1753 104.476 47.9144 104.476 53.8125H109.867C109.946 53.9715 110.026 54.1276 110.105 54.2866C109.799 54.5222 109.493 54.9639 109.188 54.9668C103.75 55.0051 98.3088 55.0051 92.8709 54.9609C92.5474 54.9609 92.2268 54.5398 91.9062 54.316C92.0209 54.1718 92.1357 54.0304 92.2504 53.8861L92.2474 53.8832Z" fill="#6C6C6A"/>
<path d="M161.253 21.1476H156.392C156.306 21.0298 156.218 20.909 156.133 20.7913C162.465 18.5622 166.938 14.6046 168.42 7.85547C168.535 7.88786 168.65 7.92025 168.767 7.95559V20.2053H177.549C177.949 20.9709 177.667 21.3183 176.714 21.3125C174.176 21.2977 171.638 21.3066 168.885 21.3066V22.8967C168.885 31.5775 168.885 40.2553 168.885 48.9361C168.885 51.6687 169.558 52.982 171.211 53.4855C174.017 54.3395 176.805 53.4973 178.108 51.3801C178.479 50.7765 178.787 50.1287 179.464 49.528C179.481 49.8136 179.576 50.1228 179.505 50.3848C178.79 53.0645 176.835 54.5044 174.364 55.3259C171.597 56.2447 168.785 56.1387 166.032 55.2523C162.715 54.1834 161.277 52.1075 161.268 48.4002C161.244 39.9167 161.262 31.4332 161.262 22.9497C161.262 22.4196 161.262 21.8925 161.262 21.1505L161.253 21.1476Z" fill="#6C6C6A"/>
</g>
<defs>
<clipPath id="clip0_329_1915">
<rect width="256.435" height="56.1454" fill="white" transform="translate(0.296875 0.117188)"/>
</clipPath>
</defs>
</svg>
