<svg width="257" height="57" viewBox="0 0 257 57" fill="none" xmlns="http://www.w3.org/2000/svg">
<g clip-path="url(#clip0_363_97)">
<path d="M243.512 24.8298V1.55243C241.768 0.760324 239.577 2.12958 237.977 0.780936C238.009 0.610147 238.039 0.439359 238.071 0.265625H251.367V53.6872H256.158C256.249 53.8227 256.34 53.9611 256.432 54.0965C256.135 54.3556 255.843 54.8327 255.543 54.8356C251.729 54.8857 247.912 54.868 243.929 54.868V48.7491C243.718 48.7638 243.632 48.7608 243.629 48.7726C242.091 56.2343 232.412 57.3032 226.257 53.9405C221.651 51.4257 219.157 47.315 218.057 42.3769C216.64 36.0165 217.831 30.0889 221.869 24.8828C224.472 21.5259 227.904 19.6502 232.201 19.2762C235.459 18.9935 238.418 19.5765 240.906 21.7409C241.897 22.6036 242.629 23.7638 243.512 24.8239V24.8298ZM243.885 38.1543C243.556 34.1702 243.503 30.7838 242.944 27.48C242.221 23.1955 238.633 20.2096 234.839 20.51C231.086 20.8074 228.96 23.2868 227.692 26.573C225.739 31.6407 226.004 36.9499 226.404 42.2031C226.578 44.4882 227.219 46.8085 228.054 48.9522C229.23 51.9734 231.392 54.0847 234.853 54.3556C239.059 54.6854 241.909 51.7614 242.638 48.272C243.371 44.7709 243.538 41.149 243.888 38.1543H243.885Z" fill="#152238"/>
<path d="M45.5003 36.8268V55.2013C44.7709 54.3474 44.1298 53.7261 43.6533 52.9988C43.0269 52.0388 42.4534 51.9299 41.3887 52.4658C36.4949 54.9363 31.3305 56.2172 25.7838 56.1436C14.258 55.9876 3.60275 47.7396 1.0029 36.4411C-1.14697 27.0948 -0.00585914 18.2167 6.04084 10.4311C10.2347 5.02769 15.7903 1.76503 22.5222 0.451723C28.5719 -0.729076 34.2245 0.484114 39.6124 3.16962C40.9505 3.83511 41.7358 3.70849 42.5593 2.57481C42.9886 1.98293 43.5386 1.47646 44.0356 0.928754C44.165 1.00237 44.2944 1.07893 44.4239 1.15255V18.8999C43.371 15.8404 42.6004 13.1549 41.5387 10.5901C38.933 4.30036 32.6128 0.442889 26.0632 1.0701C21.2311 1.5324 17.6166 4.14135 14.8697 8.02533C11.5376 12.7367 10.1318 18.0665 9.7318 23.7674C9.36417 29.0235 9.55828 34.2385 10.6759 39.3769C11.7376 44.265 13.608 48.7968 17.7107 51.9976C25.922 58.4022 39.3889 54.792 42.7181 44.4858C43.4151 42.3274 43.9004 40.0983 44.518 37.9104C44.6474 37.4481 44.9385 37.03 45.1532 36.5912C45.2679 36.6678 45.3826 36.7473 45.5003 36.8239V36.8268Z" fill="#152238"/>
<path d="M52.7662 21.3273C51.231 20.7796 49.5928 21.6217 48.3047 20.7766C48.3312 20.5675 48.3576 20.3614 48.3812 20.1523H60.6451C60.6451 20.5705 60.6451 21.0976 60.6451 21.6217C60.6451 30.7471 60.704 39.8726 60.6187 48.998C60.5804 53.0793 63.5597 55.0816 67.4977 54.2218C71.4357 53.362 73.1444 50.2789 74.1002 46.7807C74.6737 44.6871 74.9825 42.4639 75.0296 40.2937C75.1531 34.4073 75.0384 28.5181 75.1031 22.6317C75.1178 21.3685 74.6972 20.9945 73.512 21.0976C72.5503 21.18 71.5739 21.1152 70.4328 20.7825C70.6828 20.5881 70.9298 20.2318 71.1798 20.2289C74.9443 20.1936 78.7117 20.2053 82.6409 20.2053V53.7006H87.6847V54.8343H75.1207V48.1647C73.9855 49.7989 73.015 51.8249 71.4945 53.2648C67.13 57.4049 56.8777 56.6923 53.8661 50.2936C53.1485 48.7654 52.8515 46.9161 52.825 45.2083C52.7132 37.8025 52.7721 30.3908 52.7662 22.9851C52.7662 22.4109 52.7662 21.8367 52.7662 21.3302V21.3273Z" fill="#152238"/>
<path d="M155.223 51.1826C155.046 51.7038 154.976 52.2986 154.673 52.7315C152.961 55.1814 148.808 56.374 145.244 55.4936C142.556 54.831 141.235 53.0996 140.806 49.4011C139.735 52.6844 137.535 54.4335 134.574 55.2904C130.671 56.4211 126.995 55.7821 123.757 53.4176C119.86 50.5701 119.463 42.331 125.392 39.6868C128.559 38.2733 131.924 37.2987 135.2 36.1296C135.656 35.9677 136.13 35.847 136.58 35.6644C140.009 34.2657 140.653 33.3087 140.653 29.6367C140.653 28.2616 140.582 26.8835 140.668 25.5172C140.915 21.5095 138.603 20.1638 135.203 20.208C134.386 20.2198 133.539 20.3582 132.762 20.6085C130.583 21.3093 129.859 22.8022 130.406 25.2404C131.206 28.8034 129.098 30.8558 125.577 29.9341C122.822 29.2127 122.075 26.4889 123.983 24.0861C125.721 21.9012 128.054 20.6556 130.686 19.9135C134.324 18.8888 138.006 18.9595 141.673 19.6515C146.011 20.4701 148.238 23.2469 148.252 27.7934C148.279 35.152 148.255 42.5136 148.258 49.8723C148.258 51.3328 148.05 52.9141 149.944 53.4853C151.761 54.033 153.09 53.4117 154.32 51.4859C154.423 51.3269 154.546 51.1826 154.658 51.0295C154.846 51.0796 155.031 51.1267 155.22 51.1767L155.223 51.1826ZM140.456 34.9783C138.253 35.9971 135.936 37.0572 133.627 38.1379C128.295 40.6379 127.621 46.8835 129.456 50.9088C130.154 52.437 131.239 53.6061 133.045 53.771C136.33 54.0684 138.862 52.4046 139.753 49.2009C140.153 47.7639 140.382 46.2415 140.426 44.7515C140.523 41.4477 140.456 38.1379 140.456 34.9783Z" fill="#152238"/>
<path d="M212.559 34.6058H189.466C189.466 35.9015 189.354 37.1206 189.49 38.3102C189.816 41.2107 189.94 44.1877 190.71 46.9792C192.91 54.9297 201.254 56.1017 206.862 52.1264C209.009 50.6041 210.247 48.4132 211.268 46.0546C211.424 45.6953 211.774 45.4185 212.168 45.2124C210.215 53.2542 203.724 56.67 196.204 55.6512C193.207 55.2448 190.425 54.3673 188.034 52.4592C184.393 49.5558 182.378 45.6718 181.62 41.1665C180.731 35.9015 181.502 30.8838 184.522 26.3638C189.513 18.8903 199.539 16.8644 206.721 21.9321C210.238 24.4145 211.941 28.004 212.406 32.2236C212.485 32.951 212.506 33.6871 212.568 34.6058H212.559ZM189.222 33.6223H205.05C204.633 30.5805 204.395 27.6653 203.783 24.8267C203.339 22.7743 202.112 21.1017 199.886 20.4657C196.148 19.3968 192.416 21.3962 190.995 25.607C190.151 28.107 189.831 30.7808 189.222 33.6194V33.6223Z" fill="#152238"/>
<path d="M91.9505 53.766H96.2003V21.3132C94.8239 20.6565 93.0681 21.7961 91.7947 20.6889C91.8152 20.5093 91.8358 20.3297 91.8564 20.1471H103.829V27.5558C103.929 27.5735 104.026 27.5941 104.126 27.6117C104.35 26.9021 104.564 26.1924 104.797 25.4857C106.1 21.5428 108.823 19.4345 112.952 19.0605C116.964 18.6954 119.725 21.8049 118.323 25.1618C117.614 26.8609 115.687 27.8532 113.749 27.5146C112.043 27.2201 111.123 26.0864 110.973 24.0811C110.944 23.6895 111.049 23.2743 110.949 22.9092C110.782 22.2937 110.588 21.2808 110.241 21.2072C109.658 21.0835 108.805 21.4015 108.32 21.8255C106.15 23.7101 105.264 26.3308 104.812 29.0369C104.412 31.4309 104.241 33.8868 104.206 36.319C104.12 42.0581 104.179 47.7972 104.179 53.6953H109.57C109.649 53.8543 109.729 54.0104 109.808 54.1694C109.502 54.405 109.197 54.8467 108.891 54.8496C103.453 54.8879 98.0119 54.8879 92.574 54.8437C92.2505 54.8437 91.9299 54.4226 91.6094 54.1989C91.7241 54.0546 91.8388 53.9132 91.9535 53.7689L91.9505 53.766Z" fill="#152238"/>
<path d="M160.956 21.0304H156.095C156.009 20.9126 155.921 20.7919 155.836 20.6741C162.168 18.445 166.641 14.4874 168.123 7.73828C168.238 7.77067 168.353 7.80306 168.47 7.8384V20.0881H177.252C177.652 20.8537 177.37 21.2012 176.417 21.1953C173.879 21.1805 171.341 21.1894 168.588 21.1894V22.7795C168.588 31.4603 168.588 40.1381 168.588 48.8189C168.588 51.5515 169.262 52.8648 170.914 53.3684C173.72 54.2223 176.508 53.3801 177.811 51.2629C178.182 50.6593 178.49 50.0115 179.167 49.4108C179.185 49.6964 179.279 50.0056 179.208 50.2677C178.493 52.9473 176.538 54.3872 174.067 55.2088C171.3 56.1275 168.488 56.0215 165.735 55.1351C162.418 54.0662 160.98 51.9903 160.971 48.283C160.947 39.7995 160.965 31.316 160.965 22.8325C160.965 22.3025 160.965 21.7754 160.965 21.0333L160.956 21.0304Z" fill="#152238"/>
</g>
<defs>
<clipPath id="clip0_363_97">
<rect width="256.435" height="56.1454" fill="white"/>
</clipPath>
</defs>
</svg>
